<mxfile host="app.diagrams.net" modified="2024-03-14T00:32:32.372Z" agent="Mozilla/5.0 (Windows NT 10.0; Win64; x64) AppleWebKit/537.36 (KHTML, like Gecko) Chrome/122.0.0.0 Safari/537.36" etag="z7XfUhgICr80SBpRNx50" version="24.0.6" type="github">
  <diagram name="Página-1" id="vxXSESlD7XZ-F8BN0urh">
    <mxGraphModel dx="1173" dy="624" grid="1" gridSize="10" guides="1" tooltips="1" connect="1" arrows="1" fold="1" page="1" pageScale="1" pageWidth="827" pageHeight="1169" math="0" shadow="0">
      <root>
        <mxCell id="0" />
        <mxCell id="1" parent="0" />
        <mxCell id="-o285TeNuFn4jJfjmSbg-102" value="" style="rounded=0;whiteSpace=wrap;html=1;" vertex="1" parent="1">
          <mxGeometry width="280" height="540" as="geometry" />
        </mxCell>
        <mxCell id="-o285TeNuFn4jJfjmSbg-8" style="edgeStyle=orthogonalEdgeStyle;rounded=0;orthogonalLoop=1;jettySize=auto;html=1;entryX=0.5;entryY=0;entryDx=0;entryDy=0;" edge="1" parent="1" source="-o285TeNuFn4jJfjmSbg-1" target="-o285TeNuFn4jJfjmSbg-2">
          <mxGeometry relative="1" as="geometry" />
        </mxCell>
        <mxCell id="-o285TeNuFn4jJfjmSbg-9" style="edgeStyle=orthogonalEdgeStyle;rounded=0;orthogonalLoop=1;jettySize=auto;html=1;exitX=0.5;exitY=1;exitDx=0;exitDy=0;entryX=0.5;entryY=0;entryDx=0;entryDy=0;" edge="1" parent="1" source="-o285TeNuFn4jJfjmSbg-1" target="-o285TeNuFn4jJfjmSbg-3">
          <mxGeometry relative="1" as="geometry" />
        </mxCell>
        <mxCell id="-o285TeNuFn4jJfjmSbg-30" value=":=" style="edgeLabel;html=1;align=center;verticalAlign=middle;resizable=0;points=[];" vertex="1" connectable="0" parent="-o285TeNuFn4jJfjmSbg-9">
          <mxGeometry x="-0.78" y="-2" relative="1" as="geometry">
            <mxPoint as="offset" />
          </mxGeometry>
        </mxCell>
        <mxCell id="-o285TeNuFn4jJfjmSbg-1" value="&amp;lt;atribuição&amp;gt;" style="text;html=1;align=center;verticalAlign=middle;whiteSpace=wrap;rounded=0;" vertex="1" parent="1">
          <mxGeometry x="60" y="40" width="60" height="30" as="geometry" />
        </mxCell>
        <mxCell id="-o285TeNuFn4jJfjmSbg-22" style="edgeStyle=orthogonalEdgeStyle;rounded=0;orthogonalLoop=1;jettySize=auto;html=1;exitX=0.5;exitY=1;exitDx=0;exitDy=0;entryX=0.5;entryY=0;entryDx=0;entryDy=0;" edge="1" parent="1" source="-o285TeNuFn4jJfjmSbg-2" target="-o285TeNuFn4jJfjmSbg-11">
          <mxGeometry relative="1" as="geometry" />
        </mxCell>
        <mxCell id="-o285TeNuFn4jJfjmSbg-2" value="&amp;lt; id &amp;gt;" style="text;html=1;align=center;verticalAlign=middle;whiteSpace=wrap;rounded=0;" vertex="1" parent="1">
          <mxGeometry y="110" width="60" height="30" as="geometry" />
        </mxCell>
        <mxCell id="-o285TeNuFn4jJfjmSbg-23" style="edgeStyle=orthogonalEdgeStyle;rounded=0;orthogonalLoop=1;jettySize=auto;html=1;exitX=0.5;exitY=1;exitDx=0;exitDy=0;entryX=0.5;entryY=0;entryDx=0;entryDy=0;" edge="1" parent="1" source="-o285TeNuFn4jJfjmSbg-3" target="-o285TeNuFn4jJfjmSbg-12">
          <mxGeometry relative="1" as="geometry" />
        </mxCell>
        <mxCell id="-o285TeNuFn4jJfjmSbg-3" value="&amp;lt; expr &amp;gt;" style="text;html=1;align=center;verticalAlign=middle;whiteSpace=wrap;rounded=0;" vertex="1" parent="1">
          <mxGeometry x="120" y="110" width="60" height="30" as="geometry" />
        </mxCell>
        <mxCell id="-o285TeNuFn4jJfjmSbg-7" value="&lt;font style=&quot;font-size: 15px;&quot;&gt;A := (B + (C * A))&lt;/font&gt;" style="text;html=1;align=center;verticalAlign=middle;whiteSpace=wrap;rounded=0;fontSize=15;" vertex="1" parent="1">
          <mxGeometry x="42.5" width="135" height="30" as="geometry" />
        </mxCell>
        <mxCell id="-o285TeNuFn4jJfjmSbg-11" value="A" style="text;html=1;align=center;verticalAlign=middle;whiteSpace=wrap;rounded=0;" vertex="1" parent="1">
          <mxGeometry y="170" width="60" height="30" as="geometry" />
        </mxCell>
        <mxCell id="-o285TeNuFn4jJfjmSbg-24" style="edgeStyle=orthogonalEdgeStyle;rounded=0;orthogonalLoop=1;jettySize=auto;html=1;exitX=0.5;exitY=1;exitDx=0;exitDy=0;entryX=0.5;entryY=0;entryDx=0;entryDy=0;" edge="1" parent="1" source="-o285TeNuFn4jJfjmSbg-12" target="-o285TeNuFn4jJfjmSbg-14">
          <mxGeometry relative="1" as="geometry" />
        </mxCell>
        <mxCell id="-o285TeNuFn4jJfjmSbg-25" style="edgeStyle=orthogonalEdgeStyle;rounded=0;orthogonalLoop=1;jettySize=auto;html=1;exitX=0.5;exitY=1;exitDx=0;exitDy=0;entryX=0.5;entryY=0;entryDx=0;entryDy=0;" edge="1" parent="1" source="-o285TeNuFn4jJfjmSbg-12" target="-o285TeNuFn4jJfjmSbg-16">
          <mxGeometry relative="1" as="geometry" />
        </mxCell>
        <mxCell id="-o285TeNuFn4jJfjmSbg-31" value="+" style="edgeLabel;html=1;align=center;verticalAlign=middle;resizable=0;points=[];" vertex="1" connectable="0" parent="-o285TeNuFn4jJfjmSbg-25">
          <mxGeometry x="-0.7778" y="1" relative="1" as="geometry">
            <mxPoint as="offset" />
          </mxGeometry>
        </mxCell>
        <mxCell id="-o285TeNuFn4jJfjmSbg-12" value="(&amp;lt; expr &amp;gt;)" style="text;html=1;align=center;verticalAlign=middle;whiteSpace=wrap;rounded=0;" vertex="1" parent="1">
          <mxGeometry x="120" y="170" width="60" height="30" as="geometry" />
        </mxCell>
        <mxCell id="-o285TeNuFn4jJfjmSbg-33" style="edgeStyle=orthogonalEdgeStyle;rounded=0;orthogonalLoop=1;jettySize=auto;html=1;exitX=0.5;exitY=1;exitDx=0;exitDy=0;entryX=0.5;entryY=0;entryDx=0;entryDy=0;" edge="1" parent="1" source="-o285TeNuFn4jJfjmSbg-14" target="-o285TeNuFn4jJfjmSbg-32">
          <mxGeometry relative="1" as="geometry" />
        </mxCell>
        <mxCell id="-o285TeNuFn4jJfjmSbg-14" value="&amp;lt; id &amp;gt;" style="text;html=1;align=center;verticalAlign=middle;whiteSpace=wrap;rounded=0;" vertex="1" parent="1">
          <mxGeometry x="80" y="240" width="60" height="30" as="geometry" />
        </mxCell>
        <mxCell id="-o285TeNuFn4jJfjmSbg-26" style="edgeStyle=orthogonalEdgeStyle;rounded=0;orthogonalLoop=1;jettySize=auto;html=1;exitX=0.5;exitY=1;exitDx=0;exitDy=0;entryX=0.5;entryY=0;entryDx=0;entryDy=0;" edge="1" parent="1" source="-o285TeNuFn4jJfjmSbg-16" target="-o285TeNuFn4jJfjmSbg-19">
          <mxGeometry relative="1" as="geometry" />
        </mxCell>
        <mxCell id="-o285TeNuFn4jJfjmSbg-16" value="&amp;lt; expr &amp;gt;" style="text;html=1;align=center;verticalAlign=middle;whiteSpace=wrap;rounded=0;" vertex="1" parent="1">
          <mxGeometry x="170" y="240" width="60" height="30" as="geometry" />
        </mxCell>
        <mxCell id="-o285TeNuFn4jJfjmSbg-27" style="edgeStyle=orthogonalEdgeStyle;rounded=0;orthogonalLoop=1;jettySize=auto;html=1;exitX=0.5;exitY=1;exitDx=0;exitDy=0;entryX=0.5;entryY=0;entryDx=0;entryDy=0;" edge="1" parent="1" source="-o285TeNuFn4jJfjmSbg-19" target="-o285TeNuFn4jJfjmSbg-20">
          <mxGeometry relative="1" as="geometry" />
        </mxCell>
        <mxCell id="-o285TeNuFn4jJfjmSbg-28" style="edgeStyle=orthogonalEdgeStyle;rounded=0;orthogonalLoop=1;jettySize=auto;html=1;exitX=0.5;exitY=1;exitDx=0;exitDy=0;entryX=0.5;entryY=0;entryDx=0;entryDy=0;" edge="1" parent="1" source="-o285TeNuFn4jJfjmSbg-19" target="-o285TeNuFn4jJfjmSbg-21">
          <mxGeometry relative="1" as="geometry" />
        </mxCell>
        <mxCell id="-o285TeNuFn4jJfjmSbg-41" value="*" style="edgeLabel;html=1;align=center;verticalAlign=middle;resizable=0;points=[];" vertex="1" connectable="0" parent="-o285TeNuFn4jJfjmSbg-28">
          <mxGeometry x="-0.7164" y="-1" relative="1" as="geometry">
            <mxPoint x="-1" as="offset" />
          </mxGeometry>
        </mxCell>
        <mxCell id="-o285TeNuFn4jJfjmSbg-19" value="(&amp;lt; expr &amp;gt;)" style="text;html=1;align=center;verticalAlign=middle;whiteSpace=wrap;rounded=0;" vertex="1" parent="1">
          <mxGeometry x="170" y="310" width="60" height="30" as="geometry" />
        </mxCell>
        <mxCell id="-o285TeNuFn4jJfjmSbg-39" style="edgeStyle=orthogonalEdgeStyle;rounded=0;orthogonalLoop=1;jettySize=auto;html=1;exitX=0.5;exitY=1;exitDx=0;exitDy=0;entryX=0.5;entryY=0;entryDx=0;entryDy=0;" edge="1" parent="1" source="-o285TeNuFn4jJfjmSbg-20" target="-o285TeNuFn4jJfjmSbg-37">
          <mxGeometry relative="1" as="geometry" />
        </mxCell>
        <mxCell id="-o285TeNuFn4jJfjmSbg-20" value="&amp;lt; id &amp;gt;" style="text;html=1;align=center;verticalAlign=middle;whiteSpace=wrap;rounded=0;" vertex="1" parent="1">
          <mxGeometry x="125" y="380" width="60" height="30" as="geometry" />
        </mxCell>
        <mxCell id="-o285TeNuFn4jJfjmSbg-36" style="edgeStyle=orthogonalEdgeStyle;rounded=0;orthogonalLoop=1;jettySize=auto;html=1;exitX=0.5;exitY=1;exitDx=0;exitDy=0;" edge="1" parent="1" source="-o285TeNuFn4jJfjmSbg-21" target="-o285TeNuFn4jJfjmSbg-34">
          <mxGeometry relative="1" as="geometry" />
        </mxCell>
        <mxCell id="-o285TeNuFn4jJfjmSbg-21" value="&amp;lt; expr &amp;gt;" style="text;html=1;align=center;verticalAlign=middle;whiteSpace=wrap;rounded=0;" vertex="1" parent="1">
          <mxGeometry x="215" y="380" width="60" height="30" as="geometry" />
        </mxCell>
        <mxCell id="-o285TeNuFn4jJfjmSbg-32" value="B" style="text;html=1;align=center;verticalAlign=middle;whiteSpace=wrap;rounded=0;" vertex="1" parent="1">
          <mxGeometry x="80" y="310" width="60" height="30" as="geometry" />
        </mxCell>
        <mxCell id="-o285TeNuFn4jJfjmSbg-40" style="edgeStyle=orthogonalEdgeStyle;rounded=0;orthogonalLoop=1;jettySize=auto;html=1;exitX=0.5;exitY=1;exitDx=0;exitDy=0;entryX=0.5;entryY=0;entryDx=0;entryDy=0;" edge="1" parent="1" source="-o285TeNuFn4jJfjmSbg-34" target="-o285TeNuFn4jJfjmSbg-38">
          <mxGeometry relative="1" as="geometry" />
        </mxCell>
        <mxCell id="-o285TeNuFn4jJfjmSbg-34" value="&amp;lt; id &amp;gt;" style="text;html=1;align=center;verticalAlign=middle;whiteSpace=wrap;rounded=0;" vertex="1" parent="1">
          <mxGeometry x="215" y="440" width="60" height="30" as="geometry" />
        </mxCell>
        <mxCell id="-o285TeNuFn4jJfjmSbg-37" value="C" style="text;html=1;align=center;verticalAlign=middle;whiteSpace=wrap;rounded=0;" vertex="1" parent="1">
          <mxGeometry x="125" y="440" width="60" height="30" as="geometry" />
        </mxCell>
        <mxCell id="-o285TeNuFn4jJfjmSbg-38" value="A" style="text;html=1;align=center;verticalAlign=middle;whiteSpace=wrap;rounded=0;" vertex="1" parent="1">
          <mxGeometry x="215" y="500" width="60" height="30" as="geometry" />
        </mxCell>
        <mxCell id="-o285TeNuFn4jJfjmSbg-44" value="&lt;font style=&quot;font-size: 15px;&quot;&gt;B := C * (A * C + B)&lt;/font&gt;" style="text;html=1;align=center;verticalAlign=middle;whiteSpace=wrap;rounded=0;fontSize=15;" vertex="1" parent="1">
          <mxGeometry x="342.5" width="135" height="30" as="geometry" />
        </mxCell>
        <mxCell id="-o285TeNuFn4jJfjmSbg-50" style="edgeStyle=orthogonalEdgeStyle;rounded=0;orthogonalLoop=1;jettySize=auto;html=1;entryX=0.5;entryY=0;entryDx=0;entryDy=0;" edge="1" parent="1" source="-o285TeNuFn4jJfjmSbg-53" target="-o285TeNuFn4jJfjmSbg-54">
          <mxGeometry relative="1" as="geometry" />
        </mxCell>
        <mxCell id="-o285TeNuFn4jJfjmSbg-51" style="edgeStyle=orthogonalEdgeStyle;rounded=0;orthogonalLoop=1;jettySize=auto;html=1;exitX=0.5;exitY=1;exitDx=0;exitDy=0;entryX=0.5;entryY=0;entryDx=0;entryDy=0;" edge="1" parent="1" source="-o285TeNuFn4jJfjmSbg-53" target="-o285TeNuFn4jJfjmSbg-55">
          <mxGeometry relative="1" as="geometry" />
        </mxCell>
        <mxCell id="-o285TeNuFn4jJfjmSbg-52" value=":=" style="edgeLabel;html=1;align=center;verticalAlign=middle;resizable=0;points=[];" vertex="1" connectable="0" parent="-o285TeNuFn4jJfjmSbg-51">
          <mxGeometry x="-0.78" y="-2" relative="1" as="geometry">
            <mxPoint as="offset" />
          </mxGeometry>
        </mxCell>
        <mxCell id="-o285TeNuFn4jJfjmSbg-53" value="&amp;lt;atribuição&amp;gt;" style="text;html=1;align=center;verticalAlign=middle;whiteSpace=wrap;rounded=0;" vertex="1" parent="1">
          <mxGeometry x="380" y="40" width="60" height="30" as="geometry" />
        </mxCell>
        <mxCell id="-o285TeNuFn4jJfjmSbg-92" style="edgeStyle=orthogonalEdgeStyle;rounded=0;orthogonalLoop=1;jettySize=auto;html=1;exitX=0.5;exitY=1;exitDx=0;exitDy=0;entryX=0.5;entryY=0;entryDx=0;entryDy=0;" edge="1" parent="1" source="-o285TeNuFn4jJfjmSbg-54" target="-o285TeNuFn4jJfjmSbg-84">
          <mxGeometry relative="1" as="geometry" />
        </mxCell>
        <mxCell id="-o285TeNuFn4jJfjmSbg-54" value="&amp;lt; id &amp;gt;" style="text;html=1;align=center;verticalAlign=middle;whiteSpace=wrap;rounded=0;" vertex="1" parent="1">
          <mxGeometry x="320" y="110" width="60" height="30" as="geometry" />
        </mxCell>
        <mxCell id="-o285TeNuFn4jJfjmSbg-62" style="edgeStyle=orthogonalEdgeStyle;rounded=0;orthogonalLoop=1;jettySize=auto;html=1;exitX=0.5;exitY=1;exitDx=0;exitDy=0;entryX=0.5;entryY=0;entryDx=0;entryDy=0;" edge="1" parent="1" source="-o285TeNuFn4jJfjmSbg-55" target="-o285TeNuFn4jJfjmSbg-60">
          <mxGeometry relative="1" as="geometry" />
        </mxCell>
        <mxCell id="-o285TeNuFn4jJfjmSbg-69" style="edgeStyle=orthogonalEdgeStyle;rounded=0;orthogonalLoop=1;jettySize=auto;html=1;exitX=0.5;exitY=1;exitDx=0;exitDy=0;" edge="1" parent="1" source="-o285TeNuFn4jJfjmSbg-55" target="-o285TeNuFn4jJfjmSbg-66">
          <mxGeometry relative="1" as="geometry" />
        </mxCell>
        <mxCell id="-o285TeNuFn4jJfjmSbg-81" value="*" style="edgeLabel;html=1;align=center;verticalAlign=middle;resizable=0;points=[];" vertex="1" connectable="0" parent="-o285TeNuFn4jJfjmSbg-69">
          <mxGeometry x="-0.8529" y="2" relative="1" as="geometry">
            <mxPoint as="offset" />
          </mxGeometry>
        </mxCell>
        <mxCell id="-o285TeNuFn4jJfjmSbg-55" value="&amp;lt; expr &amp;gt;" style="text;html=1;align=center;verticalAlign=middle;whiteSpace=wrap;rounded=0;" vertex="1" parent="1">
          <mxGeometry x="440" y="110" width="60" height="30" as="geometry" />
        </mxCell>
        <mxCell id="-o285TeNuFn4jJfjmSbg-91" style="edgeStyle=orthogonalEdgeStyle;rounded=0;orthogonalLoop=1;jettySize=auto;html=1;exitX=0.5;exitY=1;exitDx=0;exitDy=0;entryX=0.5;entryY=0;entryDx=0;entryDy=0;" edge="1" parent="1" source="-o285TeNuFn4jJfjmSbg-60" target="-o285TeNuFn4jJfjmSbg-86">
          <mxGeometry relative="1" as="geometry" />
        </mxCell>
        <mxCell id="-o285TeNuFn4jJfjmSbg-60" value="&amp;lt; id &amp;gt;" style="text;html=1;align=center;verticalAlign=middle;whiteSpace=wrap;rounded=0;" vertex="1" parent="1">
          <mxGeometry x="392.5" y="180" width="60" height="30" as="geometry" />
        </mxCell>
        <mxCell id="-o285TeNuFn4jJfjmSbg-65" style="edgeStyle=orthogonalEdgeStyle;rounded=0;orthogonalLoop=1;jettySize=auto;html=1;exitX=0.5;exitY=1;exitDx=0;exitDy=0;entryX=0.5;entryY=0;entryDx=0;entryDy=0;" edge="1" parent="1" source="-o285TeNuFn4jJfjmSbg-66" target="-o285TeNuFn4jJfjmSbg-68">
          <mxGeometry relative="1" as="geometry" />
        </mxCell>
        <mxCell id="-o285TeNuFn4jJfjmSbg-66" value="&amp;lt; expr &amp;gt;" style="text;html=1;align=center;verticalAlign=middle;whiteSpace=wrap;rounded=0;" vertex="1" parent="1">
          <mxGeometry x="492.5" y="180" width="60" height="30" as="geometry" />
        </mxCell>
        <mxCell id="-o285TeNuFn4jJfjmSbg-74" style="edgeStyle=orthogonalEdgeStyle;rounded=0;orthogonalLoop=1;jettySize=auto;html=1;exitX=0.5;exitY=1;exitDx=0;exitDy=0;" edge="1" parent="1" source="-o285TeNuFn4jJfjmSbg-68" target="-o285TeNuFn4jJfjmSbg-73">
          <mxGeometry relative="1" as="geometry" />
        </mxCell>
        <mxCell id="-o285TeNuFn4jJfjmSbg-75" style="edgeStyle=orthogonalEdgeStyle;rounded=0;orthogonalLoop=1;jettySize=auto;html=1;" edge="1" parent="1" source="-o285TeNuFn4jJfjmSbg-68" target="-o285TeNuFn4jJfjmSbg-71">
          <mxGeometry relative="1" as="geometry" />
        </mxCell>
        <mxCell id="-o285TeNuFn4jJfjmSbg-82" value="*" style="edgeLabel;html=1;align=center;verticalAlign=middle;resizable=0;points=[];" vertex="1" connectable="0" parent="-o285TeNuFn4jJfjmSbg-75">
          <mxGeometry x="-0.7578" y="2" relative="1" as="geometry">
            <mxPoint as="offset" />
          </mxGeometry>
        </mxCell>
        <mxCell id="-o285TeNuFn4jJfjmSbg-68" value="(&amp;lt; expr &amp;gt;)" style="text;html=1;align=center;verticalAlign=middle;whiteSpace=wrap;rounded=0;" vertex="1" parent="1">
          <mxGeometry x="492.5" y="240" width="60" height="30" as="geometry" />
        </mxCell>
        <mxCell id="-o285TeNuFn4jJfjmSbg-90" style="edgeStyle=orthogonalEdgeStyle;rounded=0;orthogonalLoop=1;jettySize=auto;html=1;exitX=0.5;exitY=1;exitDx=0;exitDy=0;entryX=0.5;entryY=0;entryDx=0;entryDy=0;" edge="1" parent="1" source="-o285TeNuFn4jJfjmSbg-71" target="-o285TeNuFn4jJfjmSbg-87">
          <mxGeometry relative="1" as="geometry" />
        </mxCell>
        <mxCell id="-o285TeNuFn4jJfjmSbg-71" value="&amp;lt; id &amp;gt;" style="text;html=1;align=center;verticalAlign=middle;whiteSpace=wrap;rounded=0;" vertex="1" parent="1">
          <mxGeometry x="440" y="310" width="60" height="30" as="geometry" />
        </mxCell>
        <mxCell id="-o285TeNuFn4jJfjmSbg-79" style="edgeStyle=orthogonalEdgeStyle;rounded=0;orthogonalLoop=1;jettySize=auto;html=1;exitX=0.5;exitY=1;exitDx=0;exitDy=0;" edge="1" parent="1" source="-o285TeNuFn4jJfjmSbg-73" target="-o285TeNuFn4jJfjmSbg-78">
          <mxGeometry relative="1" as="geometry" />
        </mxCell>
        <mxCell id="-o285TeNuFn4jJfjmSbg-80" style="edgeStyle=orthogonalEdgeStyle;rounded=0;orthogonalLoop=1;jettySize=auto;html=1;exitX=0.5;exitY=1;exitDx=0;exitDy=0;" edge="1" parent="1" source="-o285TeNuFn4jJfjmSbg-73" target="-o285TeNuFn4jJfjmSbg-77">
          <mxGeometry relative="1" as="geometry" />
        </mxCell>
        <mxCell id="-o285TeNuFn4jJfjmSbg-83" value="+" style="edgeLabel;html=1;align=center;verticalAlign=middle;resizable=0;points=[];" vertex="1" connectable="0" parent="-o285TeNuFn4jJfjmSbg-80">
          <mxGeometry x="-0.8311" y="2" relative="1" as="geometry">
            <mxPoint as="offset" />
          </mxGeometry>
        </mxCell>
        <mxCell id="-o285TeNuFn4jJfjmSbg-73" value="&amp;lt; expr &amp;gt;" style="text;html=1;align=center;verticalAlign=middle;whiteSpace=wrap;rounded=0;" vertex="1" parent="1">
          <mxGeometry x="542.5" y="310" width="60" height="30" as="geometry" />
        </mxCell>
        <mxCell id="-o285TeNuFn4jJfjmSbg-93" style="edgeStyle=orthogonalEdgeStyle;rounded=0;orthogonalLoop=1;jettySize=auto;html=1;exitX=0.5;exitY=1;exitDx=0;exitDy=0;entryX=0.5;entryY=0;entryDx=0;entryDy=0;" edge="1" parent="1" source="-o285TeNuFn4jJfjmSbg-77" target="-o285TeNuFn4jJfjmSbg-88">
          <mxGeometry relative="1" as="geometry" />
        </mxCell>
        <mxCell id="-o285TeNuFn4jJfjmSbg-77" value="&amp;lt; id &amp;gt;" style="text;html=1;align=center;verticalAlign=middle;whiteSpace=wrap;rounded=0;" vertex="1" parent="1">
          <mxGeometry x="492.5" y="380" width="60" height="30" as="geometry" />
        </mxCell>
        <mxCell id="-o285TeNuFn4jJfjmSbg-94" style="edgeStyle=orthogonalEdgeStyle;rounded=0;orthogonalLoop=1;jettySize=auto;html=1;exitX=0.5;exitY=1;exitDx=0;exitDy=0;entryX=0.5;entryY=0;entryDx=0;entryDy=0;" edge="1" parent="1" source="-o285TeNuFn4jJfjmSbg-78">
          <mxGeometry relative="1" as="geometry">
            <mxPoint x="622.5" y="440" as="targetPoint" />
          </mxGeometry>
        </mxCell>
        <mxCell id="-o285TeNuFn4jJfjmSbg-78" value="&amp;lt; expr &amp;gt;" style="text;html=1;align=center;verticalAlign=middle;whiteSpace=wrap;rounded=0;" vertex="1" parent="1">
          <mxGeometry x="592.5" y="380" width="60" height="30" as="geometry" />
        </mxCell>
        <mxCell id="-o285TeNuFn4jJfjmSbg-84" value="B" style="text;html=1;align=center;verticalAlign=middle;whiteSpace=wrap;rounded=0;" vertex="1" parent="1">
          <mxGeometry x="320" y="170" width="60" height="30" as="geometry" />
        </mxCell>
        <mxCell id="-o285TeNuFn4jJfjmSbg-86" value="C" style="text;html=1;align=center;verticalAlign=middle;whiteSpace=wrap;rounded=0;" vertex="1" parent="1">
          <mxGeometry x="392.5" y="240" width="60" height="30" as="geometry" />
        </mxCell>
        <mxCell id="-o285TeNuFn4jJfjmSbg-87" value="A" style="text;html=1;align=center;verticalAlign=middle;whiteSpace=wrap;rounded=0;" vertex="1" parent="1">
          <mxGeometry x="440" y="370" width="60" height="30" as="geometry" />
        </mxCell>
        <mxCell id="-o285TeNuFn4jJfjmSbg-88" value="C" style="text;html=1;align=center;verticalAlign=middle;whiteSpace=wrap;rounded=0;" vertex="1" parent="1">
          <mxGeometry x="492.5" y="440" width="60" height="30" as="geometry" />
        </mxCell>
        <mxCell id="-o285TeNuFn4jJfjmSbg-98" style="edgeStyle=orthogonalEdgeStyle;rounded=0;orthogonalLoop=1;jettySize=auto;html=1;exitX=0.5;exitY=1;exitDx=0;exitDy=0;entryX=0.5;entryY=0;entryDx=0;entryDy=0;" edge="1" parent="1" source="-o285TeNuFn4jJfjmSbg-95" target="-o285TeNuFn4jJfjmSbg-97">
          <mxGeometry relative="1" as="geometry" />
        </mxCell>
        <mxCell id="-o285TeNuFn4jJfjmSbg-95" value="&amp;lt; id &amp;gt;" style="text;html=1;align=center;verticalAlign=middle;whiteSpace=wrap;rounded=0;" vertex="1" parent="1">
          <mxGeometry x="592.5" y="440" width="60" height="30" as="geometry" />
        </mxCell>
        <mxCell id="-o285TeNuFn4jJfjmSbg-97" value="B" style="text;html=1;align=center;verticalAlign=middle;whiteSpace=wrap;rounded=0;" vertex="1" parent="1">
          <mxGeometry x="592.5" y="500" width="60" height="30" as="geometry" />
        </mxCell>
      </root>
    </mxGraphModel>
  </diagram>
</mxfile>
